<?xml version="1.0"?>
<svg xmlns="http://www.w3.org/2000/svg" data-name="Layer 1" id="Layer_1" viewBox="0 0 128 128"><title/><path d="M127.73779,97.89355l-17.5094-30.72546-2.933,2.933L121.89307,95.7168l-8.97656-2.39844a1.99888,1.99888,0,0,0-2.44775,1.41406l-2.43213,9.05273-8.129-14.265A12.90285,12.90285,0,0,1,100,91a12.75154,12.75154,0,0,1-1.01709,4.97662l7.98584,14.01361a2.00013,2.00013,0,0,0,3.66943-.47168l3.17529-11.82031,11.67041,3.11816a2.00014,2.00014,0,0,0,2.25391-2.92285Z"/><path d="M81.02441,25a2.0001,2.0001,0,0,0-2,2v1.87677a6.19614,6.19614,0,0,0-4.3999,1.69452A5.44193,5.44193,0,0,0,73,34.48242a5.78975,5.78975,0,0,0,6.1377,5.68848h1.7124c1.99506,0,2.1499,1.2265,2.1499,1.60248,0,1.17542-1.12286,1.69537-2.1499,1.69537H76.05176a2,2,0,0,0,0,4h2.97266V49a2,2,0,0,0,4,0V47.14124a5.8231,5.8231,0,0,0,2.34277-1.41467A5.55082,5.55082,0,0,0,87,41.77344c0-2.78418-2.1123-5.60254-6.1499-5.60254H79.1377c-1.57764,0-2.1377-.91016-2.1377-1.68848,0-1.16382,1.13208-1.61133,2.1377-1.61133H83.936a2,2,0,0,0,0-4h-.91162V27A2.0001,2.0001,0,0,0,81.02441,25Z"/><path d="M103.58545,68.1543l6.56934-6.56934a2.03382,2.03382,0,0,0,0-2.82812l-3.18408-3.18359a32.26805,32.26805,0,0,0,4.53369-10.92773H116a2.0001,2.0001,0,0,0,2-2v-9.291a2.0001,2.0001,0,0,0-2-2h-4.49561a32.26805,32.26805,0,0,0-4.53369-10.92773l3.18408-3.18359a2.0289,2.0289,0,0,0,0-2.82813L103.58545,7.8457a1.99927,1.99927,0,0,0-2.82812,0L97.57324,11.0293A32.2654,32.2654,0,0,0,86.645,6.49609V2a2.0001,2.0001,0,0,0-2-2h-9.29a2.0001,2.0001,0,0,0-2,2V6.49609a32.2654,32.2654,0,0,0-10.92822,4.5332L59.24268,7.8457a1.99927,1.99927,0,0,0-2.82812,0L49.84521,14.415a2.02569,2.02569,0,0,0,0,2.82813l3.18408,3.18359a32.26806,32.26806,0,0,0-4.53369,10.92773H44a2.0001,2.0001,0,0,0-2,2v9.291a2.01529,2.01529,0,0,0,.89325,1.666,2.2488,2.2488,0,0,0,1.27863.334c.20264-.31665,1.96106-3.05969,2.21991-3.46429l.34277-.53571H46v-5.291h4.1626a2.00025,2.00025,0,0,0,1.97656-1.69434,28.19391,28.19391,0,0,1,5.09717-12.28809,1.99947,1.99947,0,0,0-.2002-2.59473L54.08789,15.8291l3.74072-3.74121,2.94873,2.94824a2.00075,2.00075,0,0,0,2.59521.2002,28.183,28.183,0,0,1,12.2876-5.09668A2.00024,2.00024,0,0,0,77.355,8.16309V4h5.29V8.16309a2.00024,2.00024,0,0,0,1.69482,1.97656,28.183,28.183,0,0,1,12.2876,5.09668,2.00066,2.00066,0,0,0,2.59521-.2002l2.94873-2.94824,3.74072,3.74121-2.94824,2.94824a1.99947,1.99947,0,0,0-.2002,2.59473,28.19391,28.19391,0,0,1,5.09717,12.28809,2.00025,2.00025,0,0,0,1.97656,1.69434H114v5.291h-4.1626a2.00025,2.00025,0,0,0-1.97656,1.69434,28.19391,28.19391,0,0,1-5.09717,12.28809,1.99947,1.99947,0,0,0,.2002,2.59473l2.94824,2.94824-3.74072,3.74121-2.94873-2.94824a1.99951,1.99951,0,0,0-2.59521-.2002,28.23894,28.23894,0,0,1-9.29413,4.4552A13.13938,13.13938,0,0,1,91.3645,68.113a32.30982,32.30982,0,0,0,6.20874-3.14227l3.18408,3.18359A1.99927,1.99927,0,0,0,103.58545,68.1543Z"/><path d="M71.85846,57.35614a21.00146,21.00146,0,1,0-12.47-23.328,13.78832,13.78832,0,0,1,3.93243.71429,17.0433,17.0433,0,1,1,9.23181,18.516A27.143,27.143,0,0,1,71.85846,57.35614Z"/><path d="M96,91a9.026,9.026,0,0,0-6.82788-8.70483A8.87607,8.87607,0,0,0,90.92969,77a9.05974,9.05974,0,0,0-9.09863-9H61.30774a23.97589,23.97589,0,0,0,7.28064-19.18164C67.97217,42.04395,64.30176,38,58.76953,38a10.32535,10.32535,0,0,0-6.74414,2.48926,10.1132,10.1132,0,0,0-1.89307,2.26758l-2.52686,3.94922a107.35715,107.35715,0,0,1-12.96924,16.46l-5.25488,5.45117H26.11279a10.17909,10.17909,0,0,0-2.33923.28094A9.98706,9.98706,0,0,1,24,71v1.99432a6.1718,6.1718,0,0,1,2.11279-.37714h3.26855a4.06011,4.06011,0,0,0,2.916-1.24023L37.522,65.93555A111.38912,111.38912,0,0,0,50.9751,48.8623l2.52637-3.94922A5.9065,5.9065,0,0,1,58.76953,42c3.43848,0,5.40186,2.416,5.83545,7.18164A20.59639,20.59639,0,0,1,54.44287,68.27832a1.99431,1.99431,0,0,0,1.00378,3.71417c.02521.00092.04889.00751.07434.00751H81.83105a5.001,5.001,0,1,1,0,10H60.61963a2,2,0,0,0,0,4H86.90137a5.001,5.001,0,1,1,0,10H61.59131a2,2,0,1,0,0,4H84.873a5.001,5.001,0,1,1,0,10H61.60547a2,2,0,0,0,0,4H78.78857a5.001,5.001,0,1,1,0,10H55.8418c-2.64209,0-5.2998-.13086-7.8999-.38965-3.25537-.32422-5.83057-.60645-7.65381-.83887A96.50706,96.50706,0,0,0,28.14063,122a8.18524,8.18524,0,0,1-4.3078-1.22443,9.93948,9.93948,0,0,1-1.50793,3.75385A12.17484,12.17484,0,0,0,28.14063,126a92.3578,92.3578,0,0,1,11.64209.74023c1.85938.23633,4.47119.52246,7.76318.85059,2.731.27148,5.52246.40918,8.2959.40918H78.78857a9.05974,9.05974,0,0,0,9.09863-9,8.87692,8.87692,0,0,0-1.6225-5.11658A9.037,9.037,0,0,0,93.97168,105a8.91049,8.91049,0,0,0-2.5307-6.21179A8.98173,8.98173,0,0,0,96,91Z"/><path d="M14,65H6a6.00656,6.00656,0,0,0-6,6v48a6.00656,6.00656,0,0,0,6,6h8a6.00656,6.00656,0,0,0,6-6V71A6.00656,6.00656,0,0,0,14,65Zm2,54a2.00229,2.00229,0,0,1-2,2H6a2.00229,2.00229,0,0,1-2-2V71a2.00229,2.00229,0,0,1,2-2h8a2.00229,2.00229,0,0,1,2,2Z"/></svg>
