<svg id="Layer_1" enable-background="new 0 0 53 53" viewBox="0 0 53 53" xmlns="http://www.w3.org/2000/svg"><g><g><path d="m36.4316864 36.1958542c-.2773438 0-.5449219-.1489258-.6757812-.4106445-.1484375-.2978516-.0869141-.644043.1347656-.8647461.0126953-.0136719.0263672-.0268555.0400391-.0395508l9.2099609-8.4096699c.4150391-.3862305.4414062-1.0473633.0537109-1.4692383l-5.0605469-5.5205078c-.8916016-1.0424805-.8017578-2.4951172.1445312-3.3681641.5830078-.5385742 1.4169922-.7426758 2.1875-.5317383 1.6796875.4101562 3.4804688-.0527344 4.7861328-1.2416992 1.1630859-1.0610352 1.7802734-2.581543 1.6923828-4.1713867-.0878906-1.5952148-.8935547-3.0595698-2.2089844-4.0170894-1.6025391-1.1357422-3.8339844-1.2680664-5.5449219-.3203125-1.9960938 1.1494141-3.0283203 3.2431636-2.6826172 5.4580073.1074219.7958984-.1630859 1.5507812-.7412109 2.0859375-.9609375.8867188-2.4619141.8291016-3.3505859-.1308594l-5.0624981-5.5332026c-.1835938-.2070312-.4316406-.3237305-.7050781-.3369141-.2753906-.0039062-.5390625.0830078-.7412109.2700195l-5.5341797 5.0639644c-.0185547.0170898-.078125.0629883-.0986328.078125-.9316406.8071289-2.3818359.7255859-3.2587891-.2226562-.5361328-.5800781-.7402344-1.3945312-.546875-2.1787109.4267578-1.7070312-.0273438-3.4941401-1.2138672-4.7817378-1.0810547-1.1787109-2.6259775-1.8085938-4.2080088-1.7128906-1.6035156.090332-3.0175781.8701172-3.9833984 2.1958008-1.1494136 1.6069336-1.280273 3.835937-.3222656 5.5415034 1.1240234 1.9995117 3.2138672 3.0336914 5.4453125 2.7055664.7626953-.128418 1.5498047.1401367 2.0947275.7158203.8886719 1.0063477.8173828 2.4770508-.1455078 3.3666992l-5.5224619 5.0620117c-.4267578.3920898-.4580078 1.0356445-.0703125 1.4648438l5.3369141 5.8149414c.1269541.1386719.1972666.3193359.1972666.5073242 0 .4140625-.3359385.7548847-.750001.7548847-.2519531 0-.4755859-.1225605-.6113281-.3120136l-5.2822266-5.7553711c-.9345703-1.0356445-.8583984-2.6391602.1660156-3.5795898l5.5205078-5.0605469c.3564453-.3300781.3818359-.8803711.0537109-1.2509766-.1865234-.1972656-.4677734-.2944336-.7539062-.246582-2.8359375.4208984-5.5703125-.9350586-6.9863276-3.4521484-1.2373047-2.203125-1.0712891-5.0776362.4130859-7.1538081 1.2216792-1.6772461 3.0849605-2.7016602 5.1162105-2.815918 2.0546875-.1176758 4.0136728.6855469 5.3964853 2.1953125 1.5283203 1.6591797 2.1142578 3.9619136 1.5654297 6.1582026-.0712891.2915039 0 .5913086.1923828.7998047.3242188.3510742.8603516.3798828 1.2197266.0712891.0136719-.012207.0683594-.0532227.0830078-.0639648l5.4707031-5.0117183c.4941406-.4604492 1.1484375-.6962891 1.8291016-.6655273.6787109.0317383 1.2988281.3266602 1.7470703.8295898l5.053709 5.5229487c.3271484.3535156.8671875.3774414 1.2275391.0454102.2167969-.2011719.3154297-.4746094.2753906-.7685547-.4345703-2.7841797.9101562-5.530273 3.4296875-6.9804683 2.2138672-1.2246094 5.0849609-1.0605469 7.1572266.4082031 1.6894531 1.2294922 2.71875 3.1054683 2.8310547 5.1528316.1132812 2.0415039-.6816406 3.9960938-2.1787109 5.362793-1.6777344 1.5249023-3.9873047 2.1171875-6.1738281 1.5844727-.2822266-.0756836-.5927734-.0014648-.7929688.1821289-.3476562.3212891-.3828125.8745117-.0771484 1.2338867l5.0810547 5.5385742c.9423828 1.0273438.8789062 2.6362305-.1425781 3.5864258l-9.1523438 8.3569355c-.0634766.0756836-.1425781.1391602-.2333984.1845703-.1083985.0541992-.225586.0800781-.3398438.0800781z"/></g><g><g><path d="m35.5019989 32.2422409c-.0634766 0-.1269531-.0043945-.1914062-.0131836-.3691406-.0473633-.6582031-.3623066-.6582031-.7441425 0-.4140625.3300781-.75.7441406-.75h.0107422c.0380859 0 .0761719.0029297.1142578.0087891l1.046875-1.9248047-1.7958984-.9736328c-.2998047-.1723633-.4423828-.5273438-.3466797-.859375.1806641-.6201172.2714844-1.2763672.2714844-1.9511719 0-.6679688-.0908203-1.3208008-.2714844-1.940918-.0957031-.3320312.046875-.6870117.3466797-.859375l1.8105469-1.0400391-1.1455078-1.8950195-1.7421875 1.0727539c-.2998047.1748047-.6816406.1220703-.921875-.1303711-.9121075-.956543-2.0742168-1.6269531-3.3623028-1.9379883-.3369141-.0810547-.5742188-.3828125-.5742188-.7290039v-2.0898438l-2.2001953.0498047.0498047 2.0400391c0 .3457031-.2363281.6469727-.5732422.7285156-1.2832031.3125-2.4423828.9829102-3.3535156 1.9384766-.2392578.2524414-.6210938.3066406-.921875.1298828l-1.8095703-1.0600586-1.0625 1.9482422 1.7861328.9755859c.2958984.1708984.4384766.5200195.3476562.8491211-.1806641.6557617-.2724609 1.3120117-.2724609 1.9501953 0 .6450195.0917969 1.3046875.2724609 1.9604492.0917969.3300781-.0527344.6796875-.3486328.8500977l-1.8105469 1.0400391.3320312.4907227c.2275391.2836914.2255859.7011719-.0253906.9780273-.2783203.3066406-.7470703.3339844-1.0546875.0556641-.0576172-.0532227-.1181641-.125-.1572266-.1938477l-.3701172-.6499023c-.3916016-.7236328-.1572266-1.5874023.5273438-1.980957l1.3232422-.7602539c-.125-.5981445-.1884766-1.1982422-.1884766-1.7900391 0-.5869141.0634766-1.184082.1884766-1.78125l-1.3134766-.7592773c-.3330078-.1855469-.578125-.5-.6787109-.8803711-.0986328-.3691406-.0498047-.7578125.1376953-1.0942383l1.1367188-1.9697266c.3896484-.6782227 1.2744141-.9223633 1.9677734-.5439453l1.3369141.7827148c.8886719-.8095703 1.9384766-1.4155273 3.0839844-1.7817383v-1.5219727c0-.7998047.6503906-1.4501953 1.4501953-1.4501953h2.2597656c.7939453 0 1.4404297.6503906 1.4404297 1.4501953v1.5209961c1.1503906.3652344 2.2031231.9716797 3.0937481 1.7827148l1.3173828-.7714844c.7119141-.3862305 1.5722656-.1542969 1.9804688.5185547l1.1376953 1.9746094c.3945312.7026367.1523438 1.5893555-.5351562 1.984375l-1.3193359.7583008c.1230469.5786133.1855469 1.1757812.1855469 1.7817383 0 .6113281-.0625 1.2119141-.1855469 1.7919922l1.3193359.7578125c.6894531.3974609.9287109 1.2617188.5449219 1.96875l-1.140625 1.9672852c-.2734377.4560547-.7402345.7216816-1.2333986.7216816zm-7.7392559-3.4882832c-2.0488281 0-3.7148438-1.6665039-3.7148438-3.7148438s1.6660156-3.7143555 3.7148438-3.7143555c2.0478516 0 3.7138672 1.6660156 3.7138672 3.7143555s-1.6660156 3.7148438-3.7138672 3.7148438zm0-5.9291992c-1.2216797 0-2.2148438.9931641-2.2148438 2.2143555s.9931641 2.2148438 2.2148438 2.2148438c1.2207031 0 2.2138672-.9936523 2.2138672-2.2148438s-.9931641-2.2143555-2.2138672-2.2143555z"/></g></g><g><path d="m33.832077 48.6167526h-16.2392559c-.5351562 0-1.0615234-.1220703-1.5244141-.3525391l-4.7060556-2.2841797v-12.927246l4.9746103-2.9658222c.8291016-.4970703 1.7792969-.7602539 2.7451172-.7602539h12.7304688c2.529295 0 4.6835918 1.8056641 5.1220684 4.2929707.0585938.3139648.0878906.6240234.0878906.9169922 0 .3276367-.0302734.6508789-.0898438.9663086l6.4990234-6.0620136c1.5771484-1.4746094 4.0908203-1.4223633 5.6074219.1147461.75.7617188 1.1630859 1.7670898 1.1630859 2.8310566 0 1.0751953-.4453125 2.1245117-1.2207031 2.878418l-12.6601562 12.3393553c-.6640625.6523437-1.5488281 1.012207-2.4892578 1.012207zm-21.4697256-3.2626953 4.1484385 2.0131836c.3291016.1640625.7011719.2495117 1.0820312.2495117h16.2392559c.6767578 0 1.3125-.2583008 1.7900391-.7270508l12.6621094-12.3408203c.5830078-.5673828.9179688-1.3554688.9179688-2.1621094 0-.7998066-.3105469-1.555666-.8759766-2.1289082-1.1376953-1.1552734-3.0263672-1.1933594-4.2119141-.0859375l-8.6142578 8.0346699h-1.3535156l.7617188-.8427734c.71875-.7636719 1.1142578-1.7680664 1.1142578-2.8271484 0-.2324219-.0244141-.480957-.0722656-.7392578-.3544922-2.0126972-2.0947266-3.470705-4.1376934-3.470705h-12.7304689c-.7851562 0-1.5566406.2138672-2.2324219.6186523l-4.4873056 2.6757832z"/></g><g><path d="m31.8164539 39.9849167h-9.9619141c-.4140625 0-.75-.3359375-.75-.75s.3359375-.75.75-.75h9.9619141c2.1796856 0 3.9521465-1.7729492 3.9521465-3.9521484 0-2.1796875-1.7724609-3.9526386-3.9521465-3.9526386h-12.7304687c-.7441406 0-1.4755859.2011719-2.1132812.5825195l-4.7294931 2.8198261c-.3535156.2124023-.8144531.0961914-1.0283203-.2597656-.2119141-.355957-.0957031-.8164062.2607422-1.0283203l4.7285166-2.8198261c.8701172-.5195312 1.8662109-.7944336 2.8818359-.7944336h12.7304688c3.0058575 0 5.4521465 2.4458008 5.4521465 5.4526386-.0000001 3.0063476-2.4462892 5.4521484-5.4521467 5.4521484z"/></g><g><path d="m33.832077 48.8657761h-16.2441387c-.5595703 0-1.1220703-.1293945-1.625001-.3735352l-4.4306641-2.1513672c-.3730469-.1811523-.5283203-.6298828-.3476562-1.0024414.1816406-.371582.6289062-.5288086 1.0019531-.347168l4.430665 2.1513672c.3007812.1459961.6367188.2231445.9707031.2231445h16.2441388c.6074219 0 1.1816406-.2333984 1.6171875-.6577148l12.6621094-12.3354492c.5332031-.519043.8310547-1.2143555.8388672-1.9584961.0078125-.7441425-.2753906-1.446291-.7978516-1.9765644-1.0634766-1.0791016-2.7646484-1.112793-3.8691406-.0810547l-8.4697266 7.9023457c-.3027344.2817383-.7753906.2666016-1.0605469-.0366211-.2822266-.3027344-.265625-.7773438.0371094-1.0600586l8.4697266-7.9023457c1.7060547-1.5913086 4.3232422-1.5356445 5.9609375.125.8046875.8173828 1.2412109 1.8989258 1.2294922 3.0454121-.0126953 1.1459961-.4707031 2.2172852-1.2919922 3.0166016l-12.6621094 12.3359374c-.7177734.6982422-1.6630859 1.0830079-2.6640625 1.0830079z"/></g><g><path d="m10.8613749 50.6187057h-6.5654293c-.9638672 0-1.7480469-.7841797-1.7480469-1.7480469v-18.477541c0-.9633789.7841797-1.7475586 1.7480469-1.7475586h6.5654292c.9638672 0 1.7480469.7841797 1.7480469 1.7475586v18.477541c0 .9638673-.7841797 1.7480469-1.7480468 1.7480469zm-6.5654293-20.4731464c-.1367188 0-.2480469.1108398-.2480469.2475586v18.477541c0 .1367188.1113281.2480469.2480469.2480469h6.5654292c.1367188 0 .2480469-.1113281.2480469-.2480469v-18.477541c0-.1367188-.1113281-.2475586-.2480469-.2475586z"/></g><g><path d="m7.9004378 33.7793503h-.6445312c-.4140625 0-.75-.3359375-.75-.75s.3359375-.75.75-.75h.6445312c.414062 0 .7499995.3359375.7499995.75s-.3359374.75-.7499995.75z"/></g><g><path d="m33.4521942 35.2866745c-3.1376934 0-5.8398418-2.2373047-6.4257793-5.3198261-.0419922-.2197266.015625-.4462891.1582031-.6181641.1425781-.1723633.3544922-.2719727.578125-.2719727h4.0498047c2.6513653 0 4.9091778 1.8925781 5.3681622 4.4995136.0537109.3041992-.0839844.6103516-.3476562.7709961-1.0087892.6147462-2.1777345.9394532-3.3808595.9394532zm-4.6972637-4.7099628c.7431641 1.9042988 2.59375 3.2099628 4.6972637 3.2099628.7431641 0 1.4677734-.1601562 2.125-.4658203-.515625-1.6176777-2.0224609-2.7441425-3.7646465-2.7441425z"/></g></g></svg>