<svg height="480pt" viewBox="0 0 480 480" width="480pt" xmlns="http://www.w3.org/2000/svg"><path d="m424 376v-32h8v-16h-32v16h8v32zm0 0"/><path d="m424 440h16v16h-16zm0 0"/><path d="m280 376v-32h8v-16h-32v16h8v32zm0 0"/><path d="m280 440h16v16h-16zm0 0"/><path d="m80 280h8v32h16v-32h8v-16h-32zm0 0"/><path d="m88 392h16v16h-16zm0 0"/><path d="m88 424h16v16h-16zm0 0"/><path d="m104 408h16v16h-16zm0 0"/><path d="m72 408h16v16h-16zm0 0"/><path d="m472 0h-464c-4.414062 0-8 3.574219-8 8v288c0 4.425781 3.585938 8 8 8h24v16c0 3.03125 1.710938 5.800781 4.425781 7.160156l11.574219 5.785156v19.054688h-40c-4.414062 0-8 3.574219-8 8v112c0 4.425781 3.585938 8 8 8h176c4.414062 0 8-3.574219 8-8v-112c0-4.425781-3.585938-8-8-8h-40v-19.054688l11.574219-5.792968c2.714843-1.351563 4.425781-4.121094 4.425781-7.152344v-16h75.433594c.046875.097656.070312.207031.117187.304688-15.550781 2.183593-27.550781 15.558593-27.550781 31.695312v48c0 3.03125 1.710938 5.800781 4.425781 7.160156l11.574219 5.785156v75.054688c0 4.425781 3.585938 8 8 8h80c4.414062 0 8-3.574219 8-8v-75.054688l11.574219-5.792968c2.714843-1.351563 4.425781-4.121094 4.425781-7.152344v-48c0-16.136719-12-29.511719-27.550781-31.695312.046875-.097657.070312-.207032.117187-.304688h70.867188c.046875.097656.070312.207031.117187.304688-15.550781 2.183593-27.550781 15.558593-27.550781 31.695312v48c0 3.03125 1.710938 5.800781 4.425781 7.160156l11.574219 5.785156v75.054688c0 4.425781 3.585938 8 8 8h80c4.414062 0 8-3.574219 8-8v-75.054688l11.574219-5.792968c2.714843-1.351563 4.425781-4.121094 4.425781-7.152344v-48c0-16.136719-12-29.511719-27.550781-31.695312.046875-.097657.070312-.207032.117187-.304688h19.433594c4.414062 0 8-3.574219 8-8v-288c0-4.425781-3.585938-8-8-8zm-296 464h-160v-96h160zm-32-148.945312-11.574219 5.792968c-2.714843 1.351563-4.425781 4.121094-4.425781 7.152344v24h-64v-24c0-3.03125-1.710938-5.800781-4.425781-7.160156l-11.574219-5.785156v-43.054688c0-8.824219 7.175781-16 16-16h11.039062c3.335938 0 6.328126-2.070312 7.496094-5.191406 1.167969-3.128906.28125-6.648438-2.238281-8.839844-5.28125-4.585938-8.296875-11.136719-8.296875-17.96875 0-13.230469 10.769531-24 24-24s24 10.769531 24 24c0 6.832031-3.015625 13.382812-8.289062 17.960938-2.519532 2.191406-3.414063 5.71875-2.238282 8.839843 1.167969 3.128907 4.152344 5.199219 7.488282 5.199219h11.039062c8.824219 0 16 7.175781 16 16zm176 20.945312v43.054688l-11.574219 5.792968c-2.714843 1.351563-4.425781 4.121094-4.425781 7.152344v72h-64v-72c0-3.03125-1.710938-5.800781-4.425781-7.160156l-11.574219-5.785156v-43.054688c0-8.824219 7.175781-16 16-16h11.03125c3.335938 0 6.320312-2.070312 7.488281-5.183594 1.167969-3.113281.289063-6.640625-2.222656-8.832031-5.34375-4.6875-8.296875-11.074219-8.296875-17.984375 0-13.230469 10.769531-24 24-24s24 10.769531 24 24c0 6.910156-2.953125 13.296875-8.304688 17.976562-2.511718 2.191407-3.390624 5.71875-2.222656 8.832032 1.167969 3.113281 4.160156 5.191406 7.496094 5.191406h11.03125c8.824219 0 16 7.175781 16 16zm144 0v43.054688l-11.574219 5.792968c-2.714843 1.351563-4.425781 4.121094-4.425781 7.152344v72h-64v-72c0-3.03125-1.710938-5.800781-4.425781-7.160156l-11.574219-5.785156v-43.054688c0-8.824219 7.175781-16 16-16h11.03125c3.335938 0 6.320312-2.070312 7.488281-5.183594 1.167969-3.113281.289063-6.640625-2.222656-8.832031-5.34375-4.6875-8.296875-11.074219-8.296875-17.984375 0-13.230469 10.769531-24 24-24s24 10.769531 24 24c0 6.910156-2.953125 13.296875-8.304688 17.976562-2.511718 2.191407-3.390624 5.71875-2.222656 8.832032 1.167969 3.113281 4.160156 5.191406 7.496094 5.191406h11.03125c8.824219 0 16 7.175781 16 16zm0-48h-8c0-22.054688-17.945312-40-40-40s-40 17.945312-40 40h-64c0-22.054688-17.945312-40-40-40s-40 17.945312-40 40h-72v-16c0-16.136719-12-29.511719-27.535156-31.6875 2.304687-5.089844 3.535156-10.632812 3.535156-16.3125 0-22.054688-17.945312-40-40-40s-40 17.945312-40 40c0 5.679688 1.230469 11.222656 3.535156 16.3125-15.535156 2.175781-27.535156 15.550781-27.535156 31.6875v16h-16v-272h448zm0 0"/><path d="m334.289062 130-13.488281 43.640625c-1.023437 3.320313.214844 6.925781 3.0625 8.917969 2.855469 1.984375 6.664063 1.90625 9.433594-.199219l34.703125-26.511719 34.695312 26.503906c1.433594 1.105469 3.144532 1.648438 4.855469 1.648438 1.601563 0 3.203125-.480469 4.578125-1.441406 2.847656-1.992188 4.09375-5.597656 3.0625-8.917969l-13.488281-43.640625 35.234375-27.710938c2.679688-2.113281 3.726562-5.6875 2.613281-8.90625-1.101562-3.214843-4.144531-5.382812-7.550781-5.382812h-43.023438l-13.34375-42.398438c-1.046874-3.335937-4.136718-5.601562-7.632812-5.601562s-6.585938 2.265625-7.632812 5.601562l-13.34375 42.398438h-43.023438c-3.40625 0-6.449219 2.167969-7.558594 5.382812-1.121094 3.21875-.066406 6.800782 2.613282 8.90625zm18.597657-26c3.496093 0 6.585937-2.265625 7.632812-5.601562l7.480469-23.757813 7.480469 23.757813c1.046875 3.335937 4.144531 5.601562 7.632812 5.601562h25.773438l-21.382813 16.824219c-2.601562 2.046875-3.671875 5.488281-2.695312 8.648437l7.71875 24.976563-19.664063-15.023438c-1.429687-1.097656-3.144531-1.640625-4.855469-1.640625-1.710937 0-3.421874.542969-4.855468 1.640625l-19.664063 15.023438 7.71875-24.976563c.976563-3.167968-.09375-6.601562-2.695312-8.648437l-21.398438-16.824219zm0 0"/><path d="m152 183.449219v48.550781h16v-48.550781c31.519531-3.960938 56-30.875 56-63.449219 0-35.289062-28.710938-64-64-64s-64 28.710938-64 64c0 32.574219 24.480469 59.488281 56 63.449219zm8-111.449219c26.472656 0 48 21.527344 48 48s-21.527344 48-48 48-48-21.527344-48-48 21.527344-48 48-48zm0 0"/><path d="m160 104v-16c-17.648438 0-32 14.351562-32 32h16c0-8.824219 7.175781-16 16-16zm0 0"/><path d="m240 112h16v16h-16zm0 0"/><path d="m272 112h16v16h-16zm0 0"/></svg>