<svg id="Layer_1" enable-background="new 0 0 500 500" height="512" viewBox="0 0 500 500" width="512" xmlns="http://www.w3.org/2000/svg"><path clip-rule="evenodd" d="m271.552 241.127c0 17.952-14.602 32.552-32.549 32.552-18.623 0-33.501-15.65-32.501-34.349h65c.033.599.05 1.203.05 1.797zm-102.208-22.458c0-3.776 3.073-6.849 6.849-6.849h6.669c3.688 0 6.725-2.899 6.896-6.587.746-16.173 9.329-30.671 22.604-39.177v34.71c0 3.814 3.09 6.903 6.904 6.903h39.475c3.812 0 6.904-3.089 6.904-6.903v-34.71c13.275 8.506 21.855 23.004 22.603 39.177.17 3.688 3.206 6.587 6.896 6.587h6.668c3.777 0 6.848 3.074 6.848 6.849 0 3.78-3.071 6.854-6.848 6.854h-125.62c-3.775.001-6.848-3.073-6.848-6.854zm56.826-74.121v49.31h25.667v-49.31c0-3.435-5.488-7.278-12.834-7.278s-12.833 3.844-12.833 7.278zm75.643 94.782c11.389 0 20.657-9.266 20.657-20.66 0-11.454-9.149-20.661-21.077-20.661-3.159-20.841-16.55-38.748-35.747-47.678v-5.782c0-11.624-11.952-21.084-26.642-21.084-14.691 0-26.641 9.461-26.641 21.084v5.782c-19.197 8.93-32.588 26.838-35.749 47.678-11.928 0-21.075 9.207-21.075 20.661 0 11.395 9.266 20.66 20.655 20.66h16.502c-1.001 26.359 20.101 48.156 46.308 48.156 26.214 0 47.318-21.818 46.307-48.156zm-20.088 76.542c0 3.815-3.09 6.903-6.904 6.903h-72.674c-3.811 0-6.904-3.089-6.904-6.903s3.093-6.903 6.904-6.903h72.674c3.814 0 6.904 3.089 6.904 6.903zm76.216 6.143c3.383 0 6.357-2.153 7.406-5.373l3.629-11.166 3.627 11.166c1.045 3.22 4.021 5.373 7.406 5.373h11.743l-9.504 6.908c-2.734 1.993-3.87 5.49-2.826 8.706l3.629 11.171-9.504-6.908c-2.74-1.986-6.41-1.986-9.151 0l-9.499 6.908 3.627-11.171c1.049-3.215-.088-6.713-2.828-8.706l-9.499-6.908zm-21.901 40.142 8.004-24.631-20.953-15.224c-6.075-4.415-2.928-14.093 4.576-14.093h25.899l8.004-24.631c2.32-7.137 12.493-7.137 14.813 0l8.002 24.631h25.899c7.503 0 10.648 9.678 4.58 14.084l-20.957 15.233 8.004 24.631c2.314 7.11-5.936 13.099-11.985 8.701l-20.95-15.219-20.954 15.219c-1.368.999-2.972 1.491-4.576 1.491-5.19-.001-9.047-5.135-7.406-10.192zm67.513 80.873-26.242-26.243c-4.479-4.484-11.736-4.486-16.215 0l-26.242 26.243v-46.811c21.519 11.256 47.18 11.254 68.699 0zm-94.911-112.743c0-33.39 27.167-60.559 60.56-60.559s60.562 27.169 60.562 60.559c0 33.4-27.169 60.564-60.562 60.564s-60.56-27.164-60.56-60.564zm-189.624 29.356h181.867c-3.888-9.008-6.052-18.936-6.052-29.356 0-38.675 29.684-70.535 67.466-74.029v-167.143c0-21.693-17.646-39.333-39.336-39.333-18.959 0-35.638 18.405-38.796 42.831-.445 3.444-3.375 6.016-6.846 6.016h-158.303zm-17.838-309.862h189.076c-9.379 8.955-15.904 21.485-18.761 35.036h-200.949c2.167-19.495 15.315-35.036 30.634-35.036zm342.394 280.506c0-38.675-29.686-70.535-67.468-74.029v-167.143c0-29.308-23.841-53.144-53.144-53.144h-221.782c-24.677 0-44.754 24.451-44.754 54.508v1.242c0 3.819 3.09 6.908 6.904 6.908h41.879v261.448c0 7.371 6.002 13.377 13.378 13.377h190.112c3.556 4.969 7.705 9.485 12.346 13.436v68.402c0 7.755 9.423 11.652 14.904 6.172l33.254-33.263 33.256 33.263c5.499 5.492 14.902 1.579 14.902-6.172v-68.402c16.023-13.655 26.213-33.95 26.213-56.603z" fill-rule="evenodd"/></svg>