<svg id="Layer_1" viewBox="0 0 512 512" xmlns="http://www.w3.org/2000/svg" data-name="Layer 1"><path d="m326.891 163.782v-131.937a9.889 9.889 0 0 0 -9.845-9.845h-203.031v59.875a32.1 32.1 0 0 1 -32.023 32.025h-59.992v336.241a9.888 9.888 0 0 0 9.845 9.844h188.985l-18.5-18.5a14.147 14.147 0 0 1 .012-20.006l-.012-.011 17.438-17.437a132.841 132.841 0 0 1 -17.181-41.464h-24.65a14.181 14.181 0 0 1 -14.155-14.155v-31.046a14.182 14.182 0 0 1 14.155-14.156h24.654a133.1 133.1 0 0 1 17.182-41.463l-17.438-17.438a14.177 14.177 0 0 1 0-20.017l21.957-21.957a14.177 14.177 0 0 1 20.017 0l17.438 17.438a132.98 132.98 0 0 1 41.462-17.182v-24.654a14.183 14.183 0 0 1 14.157-14.155zm-20.726 191.437a5.974 5.974 0 0 1 -5.953-10.36l26.679-15.4v-46.946a6 6 0 0 1 12 0v50.378h-.025a5.973 5.973 0 0 1 -3 5.18l-29.7 17.148zm-17.489-75.027a6 6 0 0 1 -8.484 8.484l-4.038-4.038a6 6 0 1 1 8.484-8.484zm-24.314 46.7a6 6 0 0 1 0 12h-5.71a6 6 0 0 1 0-12zm15.83 50.215a6 6 0 0 1 8.484 8.484l-4.038 4.038a6 6 0 0 1 -8.484-8.484zm46.7 24.313a6 6 0 0 1 12 0v5.711a6 6 0 0 1 -12 0zm50.215-15.829a6 6 0 1 1 8.484-8.484l4.038 4.038a6 6 0 0 1 -8.484 8.484zm24.313-46.7a6 6 0 0 1 0-12h5.711a6 6 0 0 1 0 12zm-15.83-50.215a6 6 0 0 1 -8.484-8.484l4.038-4.038a6 6 0 0 1 8.484 8.484zm-46.7-24.313a6 6 0 0 1 -12 0v-5.711a6 6 0 0 1 12 0zm-6-28.844a97.372 97.372 0 1 1 -97.324 97.372 97.348 97.348 0 0 1 97.324-97.372zm85.324 97.372a85.324 85.324 0 1 1 -85.324-85.372 85.307 85.307 0 0 1 85.324 85.372zm-170.443 127.094 13.976-13.976a133.033 133.033 0 0 0 29.828 13.976zm55.438 12h-271.364a21.893 21.893 0 0 1 -21.845-21.844v-342.241a5.983 5.983 0 0 1 2.093-4.553l91.373-91.258a5.991 5.991 0 0 1 4.549-2.089h209.031a21.893 21.893 0 0 1 21.845 21.845v131.937h9.525a14.182 14.182 0 0 1 14.156 14.155v24.655a133.063 133.063 0 0 1 41.463 17.181l17.438-17.438a14.176 14.176 0 0 1 20.017 0l21.957 21.957a14.176 14.176 0 0 1 0 20.017l-17.438 17.438a133.007 133.007 0 0 1 17.181 41.463h24.655a14.182 14.182 0 0 1 14.155 14.156v31.051a14.181 14.181 0 0 1 -14.155 14.155h-24.655a132.971 132.971 0 0 1 -17.182 41.462l17.439 17.439a14.177 14.177 0 0 1 0 20.018l-21.957 21.956a14.176 14.176 0 0 1 -20.017 0l-17.438-17.438a132.859 132.859 0 0 1 -41.463 17.181v24.655a14.182 14.182 0 0 1 -14.156 14.155h-31.05a14.183 14.183 0 0 1 -14.157-14.155zm45.207-296.2a2.177 2.177 0 0 1 2.156 2.155v29.522a6 6 0 0 0 5.306 5.96 120.909 120.909 0 0 1 45.581 18.978 5.989 5.989 0 0 0 7.609-.711l.008.008 20.881-20.882a2.182 2.182 0 0 1 3.049 0l21.957 21.957a2.182 2.182 0 0 1 0 3.049l-20.882 20.881a6 6 0 0 0 -.489 7.931 120.886 120.886 0 0 1 18.848 45.675 5.986 5.986 0 0 0 5.882 4.884v.015h29.523a2.176 2.176 0 0 1 2.155 2.159v31.051a2.176 2.176 0 0 1 -2.155 2.155h-29.523a6 6 0 0 0 -5.96 5.305 120.963 120.963 0 0 1 -18.984 45.582 5.988 5.988 0 0 0 .711 7.609l-.008.008 20.882 20.882a2.182 2.182 0 0 1 0 3.049l-21.957 21.956a2.182 2.182 0 0 1 -3.049 0l-20.882-20.882a6 6 0 0 0 -7.931-.489 121.139 121.139 0 0 1 -45.674 18.847 5.988 5.988 0 0 0 -4.884 5.883h-.014v29.523a2.177 2.177 0 0 1 -2.156 2.155h-31.05a2.177 2.177 0 0 1 -2.156-2.155v-29.523a6 6 0 0 0 -5.306-5.96 120.9 120.9 0 0 1 -45.581-18.984 5.989 5.989 0 0 0 -7.609.711l-.008-.008-20.881 20.882a2.182 2.182 0 0 1 -3.049 0l-21.957-21.957a2.211 2.211 0 0 1 -.012-3.061l.012.012 20.881-20.881a6 6 0 0 0 .489-7.931 121.145 121.145 0 0 1 -18.848-45.675 5.988 5.988 0 0 0 -5.883-4.884v-.014h-29.521a2.176 2.176 0 0 1 -2.155-2.155v-31.051a2.176 2.176 0 0 1 2.155-2.155h29.522a6 6 0 0 0 5.96-5.306 120.914 120.914 0 0 1 18.981-45.582 5.991 5.991 0 0 0 -.711-7.609l.007-.008-20.881-20.881a2.182 2.182 0 0 1 0-3.049l21.957-21.957a2.182 2.182 0 0 1 3.049 0l20.885 20.881a6 6 0 0 0 7.931.49 120.866 120.866 0 0 1 45.674-18.848 5.987 5.987 0 0 0 4.884-5.883h.015v-29.522a2.177 2.177 0 0 1 2.156-2.155zm-67.5-36.292a6 6 0 0 1 0 12h-212.945a6 6 0 0 1 0-12zm-106.471 104.836a6 6 0 1 1 0 12h-106.474a6 6 0 0 1 0-12zm0-52.419a6 6 0 1 1 0 12h-106.474a6 6 0 0 1 0-12zm-143.971-90.01 71.541-71.45v51.425a20.1 20.1 0 0 1 -20.023 20.025z" fill-rule="evenodd"/></svg>