<svg id="Outline" height="512" viewBox="0 0 64 64" width="512" xmlns="http://www.w3.org/2000/svg"><g><path d="m20 30c.167 0 .334-.042.486-.126l9-5c.317-.176.514-.511.514-.874v-10c0-.363-.197-.698-.514-.874l-9-5c-.303-.168-.669-.168-.972 0l-9 5c-.317.176-.514.511-.514.874v10c0 .363.197.698.514.874l9 5c.152.084.319.126.486.126zm0-2.144-7.535-4.186 3.625-5.075 6.86 7.622zm2.342-5.304 1.726-2.07 3.288 3.288-2.612 1.451zm-2.342-12.408 1.71.95c-.229-.056-.464-.094-.71-.094-1.654 0-3 1.346-3 3s1.346 3 3 3 3-1.346 3-3c0-.831-.34-1.583-.887-2.127l4.887 2.715v6.998l-3.293-3.293c-.199-.199-.472-.3-.752-.292-.281.013-.543.143-.723.359l-2.242 2.69-4.247-4.719c-.202-.225-.495-.342-.799-.33-.303.017-.582.17-.758.417l-3.186 4.461v-6.291zm2 3.856c0 .551-.449 1-1 1s-1-.449-1-1 .449-1 1-1 1 .449 1 1z"/><path d="m38.105 33.447c.17.339.516.553.895.553s.725-.214.895-.553l2-4c.069-.138.105-.292.105-.447v-24c0-1.654-1.346-3-3-3s-3 1.346-3 3v14c0 .552.448 1 1 1s1-.448 1-1v-11h2v20.764l-1 2-1-2v-5.764c0-.552-.448-1-1-1s-1 .448-1 1v6c0 .155.036.309.105.447zm-.105-27.447v-1c0-.551.449-1 1-1s1 .449 1 1v1z"/><path d="m49 36h-15v-33c0-.552-.448-1-1-1h-28c-1.654 0-3 1.346-3 3v7c0 .552.448 1 1 1s1-.448 1-1v-7c0-.551.449-1 1-1h1v38h-1c-.551 0-1-.449-1-1v-25c0-.552-.448-1-1-1s-1 .448-1 1v25c0 1.654 1.346 3 3 3h16c.552 0 1-.448 1-1s-.448-1-1-1h-13v-38h24v32h-4v-3c0-.552-.448-1-1-1h-14c-.552 0-1 .448-1 1v4c0 .552.448 1 1 1h11v15c0 .552.448 1 1 1h6v7c0 .552.448 1 1 1h14c.552 0 1-.448 1-1v-7h2c.552 0 1-.448 1-1v-16c0-.552-.448-1-1-1zm-2.571 2-9.429 8.644-9.429-8.644zm-32.429-4h12v2h-12zm31 26h-12v-6h12zm-19-8v-12.727l10.324 9.464c.192.176.434.263.676.263s.484-.087.676-.263l10.324-9.464v12.727z"/><path d="m53 20c4.962 0 9-4.038 9-9 0-1.599-.433-3.178-1.252-4.566-.281-.476-.895-.633-1.37-.353-.476.281-.634.894-.353 1.37.638 1.08.975 2.307.975 3.549 0 3.86-3.14 7-7 7s-7-3.14-7-7 3.14-7 7-7c1.242 0 2.469.337 3.549.975.476.281 1.088.123 1.37-.353.281-.476.123-1.089-.353-1.37-1.388-.819-2.967-1.252-4.566-1.252-4.962 0-9 4.038-9 9s4.038 9 9 9z"/><path d="m50 11c0 1.654 1.346 3 3 3s3-1.346 3-3-1.346-3-3-3-3 1.346-3 3zm4 0c0 .551-.449 1-1 1s-1-.449-1-1 .449-1 1-1 1 .449 1 1z"/><path d="m21 48h-18c-.552 0-1 .448-1 1v12c0 .552.448 1 1 1h14c.552 0 1-.448 1-1s-.448-1-1-1h-13v-10h16v11c0 .552.448 1 1 1s1-.448 1-1v-12c0-.552-.448-1-1-1z"/><path d="m18 53c0-.552-.448-1-1-1h-10c-.552 0-1 .448-1 1s.448 1 1 1h10c.552 0 1-.448 1-1z"/><path d="m7 56c-.552 0-1 .448-1 1s.448 1 1 1h8c.552 0 1-.448 1-1s-.448-1-1-1z"/><path d="m61 23h-14c-.552 0-1 .448-1 1v8c0 .552.448 1 1 1h14c.552 0 1-.448 1-1v-8c0-.552-.448-1-1-1zm-1 8h-12v-6h12z"/><path d="m51 29h6c.552 0 1-.448 1-1s-.448-1-1-1h-6c-.552 0-1 .448-1 1s.448 1 1 1z"/><path d="m61 44h-6c-.552 0-1 .448-1 1v16c0 .552.448 1 1 1h6c.552 0 1-.448 1-1v-16c0-.552-.448-1-1-1zm-5 2h4v2h-4zm4 14h-4v-10h4z"/><path d="m36 58h6c.552 0 1-.448 1-1s-.448-1-1-1h-6c-.552 0-1 .448-1 1s.448 1 1 1z"/><path d="m61 36h-6c-.552 0-1 .448-1 1s.448 1 1 1h6c.552 0 1-.448 1-1s-.448-1-1-1z"/><path d="m61 40h-6c-.552 0-1 .448-1 1s.448 1 1 1h6c.552 0 1-.448 1-1s-.448-1-1-1z"/></g></svg>