<svg id="a" height="512" viewBox="0 0 512 512" width="512" xmlns="http://www.w3.org/2000/svg"><path d="m483.135 260.07h-69.225v-28.944h20.804c2.761 0 5-2.239 5-5s-2.239-5-5-5h-20.804v-33.25h20.804c2.761 0 5-2.239 5-5s-2.239-5-5-5h-20.804v-33.25h20.804c2.761 0 5-2.239 5-5s-2.239-5-5-5h-20.804v-4.258c0-9.577-7.8-17.368-17.389-17.368h-340.342c-9.588 0-17.389 7.791-17.389 17.368v4.258h-22.79c-2.761 0-5 2.239-5 5s2.239 5 5 5h22.79v33.25h-22.045c-2.761 0-5 2.239-5 5s2.239 5 5 5h22.045v33.25h-21.3c-2.761 0-5 2.239-5 5s2.239 5 5 5h21.3v33.25h-20.555c-2.761 0-5 2.239-5 5s2.239 5 5 5h20.555v33.251h-19.811c-2.761 0-5 2.239-5 5s2.239 5 5 5h19.811v33.25h-19.065c-2.761 0-5 2.239-5 5s2.239 5 5 5h19.065v4.258c0 9.577 7.8 17.368 17.389 17.368h272.451c.916 1.033 2.238 1.696 3.727 1.696h92.027c5.808 8.899 15.864 14.8 27.283 14.8s21.474-5.901 27.282-14.8h17.05c2.762 0 5-2.238 5-5v-101.265c0-9.851-8.015-17.865-17.865-17.865zm-155.777 112.434h-271.179c-4.074 0-7.389-3.305-7.389-7.368v-234.768c0-4.062 3.314-7.368 7.389-7.368h340.342c4.074 0 7.389 3.305 7.389 7.368v129.703h-16.169v-107.238c0-7.559-6.156-13.708-13.724-13.708h-295.334c-7.567 0-13.723 6.149-13.723 13.708v189.838c0 7.559 6.156 13.708 13.723 13.708h248.675zm0-26.125h-17.455c-16.363 0-33.754-13.001-33.754-37.163l1.564-86.063c.181-9.931-3.562-19.305-10.537-26.397-6.992-7.107-16.342-11.021-26.327-11.021-20.331 0-36.872 16.487-36.872 36.752v82.554h-7.446v-82.554c0-24.354 19.881-44.168 44.317-44.168 12.004 0 23.243 4.705 31.647 13.248 8.383 8.522 12.881 19.787 12.664 31.721l-1.563 85.979v.108c.047 13.045 10.717 27.634 24.926 27.634h18.837v9.371zm-93.124-31.339c2.213 0 4.013 1.8 4.013 4.013v8.079h-96.022v-8.079c0-2.213 1.8-4.013 4.013-4.013h87.997zm93.124-5.983v17.951h-18.837c-8.215 0-14.869-9.625-14.926-17.618l1.562-85.921c.266-14.642-5.251-28.462-15.533-38.915-10.299-10.47-24.07-16.235-38.776-16.235-29.951 0-54.317 24.3-54.317 54.168v82.554h-40.294c-7.727 0-14.013 6.286-14.013 14.013v13.079c0 2.762 2.239 5 5 5h106.022c2.761 0 5-2.238 5-5v-13.079c0-7.727-6.286-14.013-14.013-14.013h-20.256v-82.554c0-14.751 12.055-26.752 26.872-26.752 7.284 0 14.102 2.853 19.198 8.034 5.076 5.161 7.8 11.98 7.668 19.202l-1.564 86.064-.002.108v.141c0 13.847 5.86 27.974 16.427 37.096h-203.893c-2.053 0-3.723-1.664-3.723-3.708v-189.839c0-2.044 1.67-3.708 3.723-3.708h295.334c2.053 0 3.724 1.664 3.724 3.708v107.238h-1.25c-27.092 0-49.133 21.976-49.133 48.986zm124.311 79.943c-12.427 0-22.537-10.069-22.537-22.445s10.11-22.445 22.537-22.445 22.536 10.069 22.536 22.445-10.109 22.445-22.536 22.445zm39.332-14.8h-7.717c.597-2.453.921-5.012.921-7.646 0-17.891-14.596-32.445-32.536-32.445s-32.537 14.555-32.537 32.445c0 2.634.324 5.192.921 7.646h-32.962v-26.793c0-17.117 13.754-31.128 30.659-31.23l73.251-.447zm0-68.471-73.312.447c-22.387.137-40.599 18.632-40.599 41.23v26.793h-39.732v-65.144c0-21.497 17.555-38.986 39.133-38.986h106.645c4.337 0 7.865 3.528 7.865 7.865v27.794z"/></svg>