<?xml version="1.0" encoding="UTF-8"?>
<svg xmlns="http://www.w3.org/2000/svg" id="Layer_3" data-name="Layer 3" viewBox="0 0 64 64" width="512" height="512"><path d="M58,3H6A5.006,5.006,0,0,0,1,8V56a5.006,5.006,0,0,0,5,5H58a5.006,5.006,0,0,0,5-5V8A5.006,5.006,0,0,0,58,3Zm3,53a3,3,0,0,1-3,3H6a3,3,0,0,1-3-3V8A3,3,0,0,1,6,5H58a3,3,0,0,1,3,3Z"/><path d="M56,7H8a3,3,0,0,0-3,3V54a3,3,0,0,0,3,3H56a3,3,0,0,0,3-3V10A3,3,0,0,0,56,7Zm1,47a1,1,0,0,1-1,1H8a1,1,0,0,1-1-1V10A1,1,0,0,1,8,9H56a1,1,0,0,1,1,1Z"/><path d="M52,45H46V41a3,3,0,0,0-3-3H40V36a1,1,0,0,0-1-1H33V31a1,1,0,0,0,.447-.105l2-1A1,1,0,0,0,36,29V25.48a4.182,4.182,0,0,1,1.178-2.775,7,7,0,0,0-6.02-11.655,7.067,7.067,0,0,0-6.071,5.835,6.974,6.974,0,0,0,1.874,5.967A3.989,3.989,0,0,1,28,25.656V29a1,1,0,0,0,.553.895l2,1A1,1,0,0,0,31,31v4H25a1,1,0,0,0-1,1v2H21a3,3,0,0,0-3,3v4H12a1,1,0,0,0-1,1v6a1,1,0,0,0,1,1H26a1,1,0,0,0,1-1V46a1,1,0,0,0-1-1H20V41a1,1,0,0,1,1-1h3v2a1,1,0,0,0,1,1H39a1,1,0,0,0,1-1V40h3a1,1,0,0,1,1,1v4H38a1,1,0,0,0-1,1v6a1,1,0,0,0,1,1H52a1,1,0,0,0,1-1V46A1,1,0,0,0,52,45ZM27.063,17.191a5.038,5.038,0,0,1,4.328-4.155A5,5,0,0,1,35.7,21.357,6.2,6.2,0,0,0,34.021,25H29.969A5.843,5.843,0,0,0,28.4,21.463,4.991,4.991,0,0,1,27.063,17.191ZM30,28.382V27h4v1.382L32.764,29H31.236ZM25,51H13V47H25ZM38,41H26V37H38ZM51,51H39V47H51Z"/><path d="M19,16V12a1,1,0,0,0-1-1H10a1,1,0,0,0-1,1v4a1,1,0,0,0,1,1h8A1,1,0,0,0,19,16Zm-2-1H11V13h6Z"/><path d="M54,11H46a1,1,0,0,0-1,1v4a1,1,0,0,0,1,1h8a1,1,0,0,0,1-1V12A1,1,0,0,0,54,11Zm-1,4H47V13h6Z"/></svg>
