<?xml version="1.0"?>
<svg xmlns="http://www.w3.org/2000/svg" id="Layer_1" data-name="Layer 1" viewBox="0 0 64 64"><path d="M50.3,10.017a11.617,11.617,0,0,0-4.828,1.054,11.483,11.483,0,0,0-9.8-5.461H21.343A11.6,11.6,0,0,0,9.758,17.2V23c-.03,0-.058,0-.088,0A7.672,7.672,0,0,0,2,30.655V48.942a2.577,2.577,0,0,0,2.574,2.574h.849v2.633a4.24,4.24,0,1,0,8.48,0V51.516H42.021v2.632a4.24,4.24,0,1,0,8.479,0V51.517h.847a2.579,2.579,0,0,0,2.576-2.576v-6.01l.584.365a1,1,0,0,0,1.529-.849V31.905A11.694,11.694,0,0,0,50.3,10.017ZM11.758,17.2A9.6,9.6,0,0,1,21.343,7.61H35.675a9.5,9.5,0,0,1,8.052,4.433,11.778,11.778,0,0,0-3.6,3.907H14.26a1,1,0,0,0,0,2H39.231a11.532,11.532,0,0,0,.489,8.735,6.5,6.5,0,0,0-.519.988c-.082.2-.164.4-.214.563a6.252,6.252,0,0,0-.172.617,3.887,3.887,0,0,0-.1.487,4.045,4.045,0,0,0-.089.67c-.02.207-.031.414-.031.641v4.138H17.327V30.655a7.746,7.746,0,0,0-.1-1.206c0-.035-.008-.072-.014-.107a7.675,7.675,0,0,0-.273-1.084c-.017-.051-.031-.1-.049-.152a7.513,7.513,0,0,0-.43-.99c-.025-.049-.05-.1-.076-.145a7.448,7.448,0,0,0-.584-.91c-.026-.035-.054-.069-.08-.1a7.566,7.566,0,0,0-.747-.833l-.048-.044a7.562,7.562,0,0,0-3.118-1.77c-.017,0-.033-.013-.05-.018ZM38.6,44.386H17.327v-7.6H38.6Zm-21.27,2H38.6v3.131H17.327ZM4,48.942V30.655A5.67,5.67,0,0,1,9.67,25a4.819,4.819,0,0,1,.926.083,5.619,5.619,0,0,1,4.64,4.553,5.793,5.793,0,0,1,.09,1.017V49.516H4.574A.574.574,0,0,1,4,48.942Zm7.9,5.207a2.24,2.24,0,1,1-4.48,0V51.516H11.9Zm36.6,0a2.24,2.24,0,1,1-4.479,0V51.517H48.5Zm3.423-5.208a.576.576,0,0,1-.576.576H40.6V30.651c0-.149.007-.3.026-.5a2.312,2.312,0,0,1,.055-.416c.007-.032.013-.065.017-.1a2.292,2.292,0,0,1,.062-.308,4.668,4.668,0,0,1,.124-.45c.019-.055.042-.11.062-.164A11.767,11.767,0,0,0,44.556,31.9V42.447a1,1,0,0,0,1.528.849L50.3,40.672l1.621,1.011Zm2.113-8.3-3.2-2a1,1,0,0,0-1.058,0l-3.218,2V32.794a11.52,11.52,0,0,0,7.48,0ZM50.3,31.419a9.7,9.7,0,1,1,9.7-9.7A9.712,9.712,0,0,1,50.3,31.419Z"/><path d="M55.646,18.265l-2.567-.373L51.93,15.564a1.82,1.82,0,0,0-3.263,0l-1.148,2.328-2.568.373a1.819,1.819,0,0,0-1.009,3.1L45.8,23.179l-.439,2.558A1.819,1.819,0,0,0,48,27.655l2.3-1.207,2.3,1.208a1.82,1.82,0,0,0,2.64-1.919L54.8,23.179l1.858-1.811a1.819,1.819,0,0,0-1.009-3.1Zm-2.314,3.549a1.817,1.817,0,0,0-.522,1.61l.393,2.291-2.056-1.08a1.811,1.811,0,0,0-1.7,0L47.4,25.715l.392-2.29a1.819,1.819,0,0,0-.523-1.612L45.6,20.191l2.3-.335a1.816,1.816,0,0,0,1.369-1L50.3,16.777l1.028,2.083a1.816,1.816,0,0,0,1.37,1l2.3.335Z"/></svg>
