<svg id="OBJECT" height="512" viewBox="0 0 512 512" width="512" xmlns="http://www.w3.org/2000/svg"><path d="m504.5 73.5h-497a7.5 7.5 0 0 0 -7.5 7.5v300a7.5 7.5 0 0 0 7.5 7.5h171v35h-72.5a7.5 7.5 0 0 0 0 15h300a7.5 7.5 0 0 0 0-15h-72.5v-35h171a7.5 7.5 0 0 0 7.5-7.5v-300a7.5 7.5 0 0 0 -7.5-7.5zm-7.5 15v245h-482v-245zm-178.5 335h-125v-35h125zm-303.5-50v-25h482v25z"/><path d="m284.5 168.5h180a7.5 7.5 0 0 0 7.5-7.5v-30a7.5 7.5 0 0 0 -7.5-7.5h-180a7.5 7.5 0 0 0 -7.5 7.5v30a7.5 7.5 0 0 0 7.5 7.5zm7.5-30h165v15h-165z"/><path d="m464.5 183.5h-140a7.5 7.5 0 0 0 -7.5 7.5v30a7.5 7.5 0 0 0 7.5 7.5h140a7.5 7.5 0 0 0 7.5-7.5v-30a7.5 7.5 0 0 0 -7.5-7.5zm-7.5 30h-125v-15h125z"/><path d="m444.5 253.5h-60a27.5 27.5 0 0 0 0 55h60a27.5 27.5 0 0 0 0-55zm0 40h-60a12.5 12.5 0 0 1 0-25h60a12.5 12.5 0 0 1 0 25z"/><path d="m47.5 168.5h8.5v132.5a7.5 7.5 0 0 0 7.5 7.5h170a7.5 7.5 0 0 0 7.5-7.5v-132.5h6.5a7.5 7.5 0 0 0 7.5-7.5v-40a7.5 7.5 0 0 0 -7.5-7.5h-200a7.5 7.5 0 0 0 -7.5 7.5v40a7.5 7.5 0 0 0 7.5 7.5zm178.5 125h-155v-125h49v32.5a7.5 7.5 0 0 0 10.79 6.74l17.13-8.35 16.16 8.28a7.38 7.38 0 0 0 3.42.83 7.5 7.5 0 0 0 7.5-7.5v-32.5h51zm-91-165h25v60.23l-8.58-4.4a7.48 7.48 0 0 0 -6.71-.07l-9.71 4.74zm105 25h-65v-25h65zm-185-25h65v25h-65z"/><path d="m140.64 263.5h-47.14a7.5 7.5 0 0 0 0 15h47.14a7.5 7.5 0 0 0 0-15z"/><path d="m93.5 254.93h31.43a7.5 7.5 0 0 0 0-15h-31.43a7.5 7.5 0 0 0 0 15z"/></svg>