<?xml version="1.0" encoding="UTF-8" standalone="no"?>
<!-- Created with Inkscape (http://www.inkscape.org/) -->
<svg xmlns="http://www.w3.org/2000/svg" xmlns:svg="http://www.w3.org/2000/svg" version="1.1" id="svg3453" width="682.66669" height="682.66669" viewBox="0 0 682.66669 682.66669">
  <defs id="defs3457">
    <clipPath clipPathUnits="userSpaceOnUse" id="clipPath3467">
      <path d="M 0,512 H 512 V 0 H 0 Z" id="path3465"/>
    </clipPath>
  </defs>
  <mask id="custom"><rect id="bg" x="0" y="0" width="100%" height="100%" fill="white"/><g transform="matrix(1.3333333,0,0,-1.3333333,0,682.66667)"/></mask><g mask="url(#custom)"><g id="g3459" transform="matrix(1.3333333,0,0,-1.3333333,0,682.66667)">
    <g id="g3461">
      <g id="g3463" clip-path="url(#clipPath3467)">
        <g id="g3469" transform="translate(209.5449,7.5)">
          <path d="M 0,0 V 62.905" style="fill:none;stroke:#000000;stroke-width:15;stroke-linecap:butt;stroke-linejoin:miter;stroke-miterlimit:10;stroke-dasharray:none;stroke-opacity:1" id="path3471"/>
        </g>
        <g id="g3473" transform="translate(302.4551,7.5)">
          <path d="M 0,0 V 62.905" style="fill:none;stroke:#000000;stroke-width:15;stroke-linecap:butt;stroke-linejoin:miter;stroke-miterlimit:10;stroke-dasharray:none;stroke-opacity:1" id="path3475"/>
        </g>
        <g id="g3477" transform="translate(338.8335,7.5)">
          <path d="m 0,0 v 93.564 l -16.652,16.653 h -132.363 c -6.503,-6.504 -10.149,-10.15 -16.652,-16.653 l 0,-93.564 z" style="fill:none;stroke:#000000;stroke-width:15;stroke-linecap:butt;stroke-linejoin:miter;stroke-miterlimit:10;stroke-dasharray:none;stroke-opacity:1" id="path3479"/>
        </g>
        <path d="m 269.367,90.979 h -26.738 v 26.738 h 26.738 z" style="fill:none;stroke:#000000;stroke-width:15;stroke-linecap:butt;stroke-linejoin:miter;stroke-miterlimit:10;stroke-dasharray:none;stroke-opacity:1" id="path3481"/>
        <g id="g3483" transform="translate(298.6699,180.2495)">
          <path d="m 0,0 v -35.737 c -10.464,-10.465 -16.331,-16.331 -26.795,-26.796 h -31.749 c -10.465,10.465 -16.332,16.331 -26.796,26.796 V 0 c 0,23.566 19.104,42.67 42.67,42.67 C -19.104,42.67 0,23.566 0,0 Z" style="fill:none;stroke:#000000;stroke-width:15;stroke-linecap:butt;stroke-linejoin:miter;stroke-miterlimit:10;stroke-dasharray:none;stroke-opacity:1" id="path3485"/>
        </g>
        <g id="g3487" transform="translate(256,197.9199)">
          <path d="M 0,0 C 9.743,0 17.67,-7.927 17.67,-17.67 V -43.052" style="fill:none;stroke:#000000;stroke-width:15;stroke-linecap:butt;stroke-linejoin:miter;stroke-miterlimit:10;stroke-dasharray:none;stroke-opacity:1" id="path3489"/>
        </g>
        <g id="g3491" transform="translate(43.8784,7.5)">
          <path d="M 0,0 V 62.905" style="fill:none;stroke:#000000;stroke-width:15;stroke-linecap:butt;stroke-linejoin:miter;stroke-miterlimit:10;stroke-dasharray:none;stroke-opacity:1" id="path3493"/>
        </g>
        <g id="g3495" transform="translate(136.7881,7.5)">
          <path d="M 0,0 V 62.905" style="fill:none;stroke:#000000;stroke-width:15;stroke-linecap:butt;stroke-linejoin:miter;stroke-miterlimit:10;stroke-dasharray:none;stroke-opacity:1" id="path3497"/>
        </g>
        <g id="g3499" transform="translate(173.1665,7.5)">
          <path d="m 0,0 v 93.564 l -16.652,16.653 h -132.363 c -6.503,-6.504 -10.149,-10.15 -16.652,-16.653 l 0,-93.564 z" style="fill:none;stroke:#000000;stroke-width:15;stroke-linecap:butt;stroke-linejoin:miter;stroke-miterlimit:10;stroke-dasharray:none;stroke-opacity:1" id="path3501"/>
        </g>
        <path d="M 103.701,90.979 H 76.963 v 26.738 h 26.738 z" style="fill:none;stroke:#000000;stroke-width:15;stroke-linecap:butt;stroke-linejoin:miter;stroke-miterlimit:10;stroke-dasharray:none;stroke-opacity:1" id="path3503"/>
        <g id="g3505" transform="translate(103.7007,7.5)">
          <path d="m 0,0 h -26.738 l 3.058,83.479 h 20.621 z" style="fill:none;stroke:#000000;stroke-width:15;stroke-linecap:butt;stroke-linejoin:miter;stroke-miterlimit:10;stroke-dasharray:none;stroke-opacity:1" id="path3507"/>
        </g>
        <g id="g3509" transform="translate(269.3657,7.5)">
          <path d="m 0,0 h -26.738 l 3.058,83.479 h 20.622 z" style="fill:none;stroke:#000000;stroke-width:15;stroke-linecap:butt;stroke-linejoin:miter;stroke-miterlimit:10;stroke-dasharray:none;stroke-opacity:1" id="path3511"/>
        </g>
        <g id="g3513" transform="translate(435.0312,7.5)">
          <path d="m 0,0 h -26.738 l 3.058,83.479 h 20.622 z" style="fill:none;stroke:#000000;stroke-width:15;stroke-linecap:butt;stroke-linejoin:miter;stroke-miterlimit:10;stroke-dasharray:none;stroke-opacity:1" id="path3515"/>
        </g>
        <g id="g3517" transform="translate(133.0034,180.2495)">
          <path d="m 0,0 v -35.737 l -26.795,-26.796 h -31.749 c -10.465,10.465 -16.332,16.331 -26.796,26.796 V 0 c 0,23.566 19.104,42.67 42.67,42.67 C -19.104,42.67 0,23.566 0,0 Z" style="fill:none;stroke:#000000;stroke-width:15;stroke-linecap:butt;stroke-linejoin:miter;stroke-miterlimit:10;stroke-dasharray:none;stroke-opacity:1" id="path3519"/>
        </g>
        <g id="g3521" transform="translate(90.3335,197.9199)">
          <path d="M 0,0 C 9.743,0 17.67,-7.927 17.67,-17.67 V -43.052" style="fill:none;stroke:#000000;stroke-width:15;stroke-linecap:butt;stroke-linejoin:miter;stroke-miterlimit:10;stroke-dasharray:none;stroke-opacity:1" id="path3523"/>
        </g>
        <g id="g3525" transform="translate(375.2119,7.5)">
          <path d="M 0,0 V 62.905" style="fill:none;stroke:#000000;stroke-width:15;stroke-linecap:butt;stroke-linejoin:miter;stroke-miterlimit:10;stroke-dasharray:none;stroke-opacity:1" id="path3527"/>
        </g>
        <g id="g3529" transform="translate(468.1216,7.5)">
          <path d="M 0,0 V 62.905" style="fill:none;stroke:#000000;stroke-width:15;stroke-linecap:butt;stroke-linejoin:miter;stroke-miterlimit:10;stroke-dasharray:none;stroke-opacity:1" id="path3531"/>
        </g>
        <g id="g3533" transform="translate(504.5,7.5)">
          <path d="m 0,0 v 93.564 l -16.652,16.653 h -132.363 c -6.503,-6.504 -10.149,-10.15 -16.652,-16.653 l 0,-93.564 z" style="fill:none;stroke:#000000;stroke-width:15;stroke-linecap:butt;stroke-linejoin:miter;stroke-miterlimit:10;stroke-dasharray:none;stroke-opacity:1" id="path3535"/>
        </g>
        <path d="m 435.034,90.979 h -26.738 v 26.738 h 26.738 z" style="fill:none;stroke:#000000;stroke-width:15;stroke-linecap:butt;stroke-linejoin:miter;stroke-miterlimit:10;stroke-dasharray:none;stroke-opacity:1" id="path3537"/>
        <g id="g3539" transform="translate(464.3369,180.2495)">
          <path d="M 0,0 V -35.737 C -10.464,-46.202 -16.332,-52.068 -26.796,-62.533 H -58.545 L -85.34,-35.737 V 0 c 0,23.566 19.104,42.67 42.67,42.67 C -19.104,42.67 0,23.566 0,0 Z" style="fill:none;stroke:#000000;stroke-width:15;stroke-linecap:butt;stroke-linejoin:miter;stroke-miterlimit:10;stroke-dasharray:none;stroke-opacity:1" id="path3541"/>
        </g>
        <g id="g3543" transform="translate(421.6665,197.9199)">
          <path d="M 0,0 C 9.744,0 17.67,-7.927 17.67,-17.67 V -43.052" style="fill:none;stroke:#000000;stroke-width:15;stroke-linecap:butt;stroke-linejoin:miter;stroke-miterlimit:10;stroke-dasharray:none;stroke-opacity:1" id="path3545"/>
        </g>
        <g id="g3547" transform="translate(380.25,380.25)">
          <path d="m 0,0 c 0,-68.622 -55.628,-124.25 -124.25,-124.25 -68.622,0 -124.25,55.628 -124.25,124.25 0,68.622 55.628,124.25 124.25,124.25 C -55.628,124.25 0,68.622 0,0 Z" style="fill:none;stroke:#000000;stroke-width:15;stroke-linecap:butt;stroke-linejoin:miter;stroke-miterlimit:10;stroke-dasharray:none;stroke-opacity:1" id="path3549"/>
        </g>
        <g id="g3551" transform="translate(349.9883,380.25)">
          <path d="m 0,0 c 0,-51.908 -42.08,-93.988 -93.988,-93.988 -51.908,0 -93.989,42.08 -93.989,93.988 0,51.908 42.081,93.988 93.989,93.988 C -42.08,93.988 0,51.908 0,0 Z" style="fill:none;stroke:#000000;stroke-width:15;stroke-linecap:butt;stroke-linejoin:miter;stroke-miterlimit:10;stroke-dasharray:none;stroke-opacity:1" id="path3553"/>
        </g>
        <g id="g3555" transform="translate(233.1294,315.1577)">
          <path d="M 0,0 C -19.822,6.985 -35.524,22.784 -42.376,42.667" style="fill:none;stroke:#000000;stroke-width:15;stroke-linecap:butt;stroke-linejoin:miter;stroke-miterlimit:10;stroke-dasharray:none;stroke-opacity:1" id="path3557"/>
        </g>
        <g id="g3559" transform="translate(271.0645,447.5815)">
          <path d="M 0,0 C 27.065,-6.051 48.18,-28.053 52.923,-55.584" style="fill:none;stroke:#000000;stroke-width:15;stroke-linecap:butt;stroke-linejoin:miter;stroke-miterlimit:10;stroke-dasharray:15, 10, 15, 10, 550;stroke-dashoffset:0;stroke-opacity:1" id="path3561"/>
        </g>
        <g id="g3563" transform="translate(268.9165,380.25)">
          <path d="m 0,0 c 0,-7.134 -5.783,-12.917 -12.917,-12.917 -7.133,0 -12.916,5.783 -12.916,12.917 0,7.134 5.783,12.917 12.916,12.917 C -5.783,12.917 0,7.134 0,0 Z" style="fill:none;stroke:#000000;stroke-width:15;stroke-linecap:butt;stroke-linejoin:miter;stroke-miterlimit:10;stroke-dasharray:none;stroke-opacity:1" id="path3565"/>
        </g>
        <g id="g3567" transform="translate(256,408.1665)">
          <path d="M 0,0 V 36.667" style="fill:none;stroke:#000000;stroke-width:15;stroke-linecap:butt;stroke-linejoin:miter;stroke-miterlimit:10;stroke-dasharray:none;stroke-opacity:1" id="path3569"/>
        </g>
        <g id="g3571" transform="translate(256,454.1665)">
          <path d="M 0,0 V 20.072" style="fill:none;stroke:#000000;stroke-width:15;stroke-linecap:butt;stroke-linejoin:miter;stroke-miterlimit:10;stroke-dasharray:none;stroke-opacity:1" id="path3573"/>
        </g>
        <g id="g3575" transform="translate(256,286.2617)">
          <path d="M 0,0 V 20.072" style="fill:none;stroke:#000000;stroke-width:15;stroke-linecap:butt;stroke-linejoin:miter;stroke-miterlimit:10;stroke-dasharray:none;stroke-opacity:1" id="path3577"/>
        </g>
        <g id="g3579" transform="translate(329.9165,380.25)">
          <path d="M 0,0 H 20.072" style="fill:none;stroke:#000000;stroke-width:15;stroke-linecap:butt;stroke-linejoin:miter;stroke-miterlimit:10;stroke-dasharray:none;stroke-opacity:1" id="path3581"/>
        </g>
        <g id="g3583" transform="translate(162.0117,380.25)">
          <path d="M 0,0 H 20.072" style="fill:none;stroke:#000000;stroke-width:15;stroke-linecap:butt;stroke-linejoin:miter;stroke-miterlimit:10;stroke-dasharray:none;stroke-opacity:1" id="path3585"/>
        </g>
        <g id="g3587" transform="translate(268.9165,380.25)">
          <path d="M 0,0 H 37.14" style="fill:none;stroke:#000000;stroke-width:15;stroke-linecap:butt;stroke-linejoin:miter;stroke-miterlimit:10;stroke-dasharray:none;stroke-opacity:1" id="path3589"/>
        </g>
        <g id="g3591" transform="translate(276.7764,347.6665)">
          <path d="M 0,0 H 41.499" style="fill:none;stroke:#000000;stroke-width:15;stroke-linecap:butt;stroke-linejoin:miter;stroke-miterlimit:10;stroke-dasharray:15, 10, 15, 10, 15, 10;stroke-dashoffset:0;stroke-opacity:1" id="path3593"/>
        </g>
        <g id="g3595" transform="translate(243.0835,380.25)">
          <path d="M 0,0 H -12.333" style="fill:none;stroke:#000000;stroke-width:15;stroke-linecap:butt;stroke-linejoin:miter;stroke-miterlimit:10;stroke-dasharray:none;stroke-opacity:1" id="path3597"/>
        </g>
        <g id="g3599" transform="translate(256,367.3335)">
          <path d="M 0,0 V -16.833" style="fill:none;stroke:#000000;stroke-width:15;stroke-linecap:butt;stroke-linejoin:miter;stroke-miterlimit:10;stroke-dasharray:none;stroke-opacity:1" id="path3601"/>
        </g>
        <g id="g3603" transform="translate(90.3335,242.9199)">
          <path d="M 0,0 V 67.826 H 42.66" style="fill:none;stroke:#000000;stroke-width:15;stroke-linecap:butt;stroke-linejoin:miter;stroke-miterlimit:10;stroke-dasharray:15, 10, 15, 10, 550;stroke-dashoffset:0;stroke-opacity:1" id="path3605"/>
        </g>
        <g id="g3607" transform="translate(421.6665,242.9199)">
          <path d="M 0,0 V 67.826 H -42.661" style="fill:none;stroke:#000000;stroke-width:15;stroke-linecap:butt;stroke-linejoin:miter;stroke-miterlimit:10;stroke-dasharray:15, 10, 15, 10, 550;stroke-dashoffset:0;stroke-opacity:1" id="path3609"/>
        </g>
        <g id="g3611" transform="translate(256,222.9199)">
          <path d="M 0,0 V 33.08" style="fill:none;stroke:#000000;stroke-width:15;stroke-linecap:butt;stroke-linejoin:miter;stroke-miterlimit:10;stroke-dasharray:none;stroke-opacity:1" id="path3613"/>
        </g>
      </g>
    </g>
  </g></g>
</svg>
